<?xml version="1.0" encoding="iso-8859-1"?>
<!-- Generator: Adobe Illustrator 19.0.0, SVG Export Plug-In . SVG Version: 6.00 Build 0)  -->
<svg version="1.1" id="Layer_1" xmlns="http://www.w3.org/2000/svg" xmlns:xlink="http://www.w3.org/1999/xlink" x="0px" y="0px"
	 viewBox="0 0 512.001 512.001" style="enable-background:new 0 0 512.001 512.001;" xml:space="preserve">
<path style="fill:#FFF3E6;" d="M219.217,156.945c109.223-35.752,195.839-52.597,250.263,18.016
	c49.376,64.065,33.468,129.97,5.974,172.552c-14.291,22.152-35.94,38.423-62.296,38.423H254.465
	c0-26.24,21.273-47.513,47.525-47.513h37.838v-0.211c-6.361-0.117-12.488-1.183-18.25-3.069l-0.012,0.023H207.374v27.025
	c0,11.316-9.172,20.488-20.488,20.488h-33.995h-50.77c0-26.24,21.285-47.513,47.525-47.513h3.244L88.357,328.7
	c-25.959-1.265-44.127-9.348-56.451-23.593c-12.312-14.245-18.766-34.627-21.273-60.504c-0.82-8.423,8.446-22.07,16.716-23.827
	c0,0,55.116-25.103,125.249-48.192h0.585c0-23.792,17.244-39.688,38.177-39.688C203.59,132.896,214.156,142.701,219.217,156.945z"/>
<path d="M23.9,312.033c14.614,16.892,35.441,25.8,63.666,27.226l21.248,2.129c-10.661,10.538-17.279,25.154-17.279,41.292
	c0,5.846,4.74,10.585,10.585,10.585h50.77h33.995c17.135,0,31.072-13.939,31.072-31.073v-16.439h42.122
	c-10.022,10.445-16.202,24.602-16.202,40.184c0,5.846,4.74,10.585,10.585,10.585h158.694c27.502,0,53.451-15.771,71.19-43.267
	c11.724-18.159,26.017-47.39,27.522-83.52c1.498-35.954-9.944-70.014-34.005-101.235c-27.368-35.507-64.307-52.85-112.93-53.019
	c-0.245,0-0.483-0.001-0.728-0.001c-43.223,0-92.174,13.335-139.307,28.492c-7.698-13.57-19.929-21.662-33.541-21.662
	c-25.138,0-44.684,17.675-48.195,42.253c-62.322,20.877-112.253,43.013-119.343,46.194c-12.828,3.715-25.037,21.383-23.724,34.868
	C2.95,275.08,10.735,296.801,23.9,312.033z M29.549,231.13c0.754-0.16,1.487-0.402,2.187-0.721
	c0.543-0.247,54.714-24.82,122.906-47.353c5.153-0.712,9.126-5.123,9.126-10.473c0-16.864,11.604-29.102,27.591-29.102
	c7.193,0,14.212,6.676,17.888,17.025c1.688,4.73,2.581,10.08,2.581,15.476c0,17.623-9.373,32.511-20.47,32.511
	c-5.845,0-10.585,4.739-10.585,10.585s4.74,10.585,10.585,10.585c23.35,0,41.641-23.58,41.641-53.682
	c0-4.107-0.355-8.129-1.042-12.04c45.29-14.548,92.039-27.29,132.244-27.29c0.218,0,0.439,0,0.658,0.001
	c42.226,0.147,72.805,14.374,96.234,44.772c53.529,69.456,21.655,135.274,5.463,160.351c-8.09,12.539-25.784,33.576-53.401,33.576
	H266.596c4.563-15.22,18.703-26.342,35.393-26.342h37.838c0.79,0,1.556-0.093,2.297-0.257c5.328-0.551,9.483-5.053,9.483-10.527
	c0-5.846-4.74-10.585-10.585-10.585c-0.296-0.001-0.596,0.001-0.893-0.007c-0.035-0.001-0.071-0.001-0.107-0.002
	c-5.185-0.095-10.284-0.952-15.177-2.553c-7.758-2.519-14.929-6.921-20.736-12.728c-9.86-9.86-15.291-22.974-15.291-36.924
	c0-34.325,21.558-65.559,53.645-77.719c5.466-2.073,8.22-8.184,6.147-13.65c-2.072-5.467-8.185-8.219-13.65-6.147
	c-19.58,7.421-36.317,20.432-48.405,37.628c-12.37,17.598-18.908,38.308-18.908,59.888c0,18.342,6.683,35.654,18.892,49.158h-68.582
	V305.66v-11.398c0-5.846-4.74-10.585-10.585-10.585c-5.845,0-10.585,4.739-10.585,10.585v11.398v56.533
	c0,5.46-4.442,9.903-9.902,9.903H152.89h-38.638c4.563-15.22,18.703-26.342,35.393-26.342h3.237c0.006,0,0.014,0.001,0.02,0.001
	c0.355,0,0.705-0.02,1.051-0.055c0.062-0.006,0.123-0.019,0.184-0.026c0.277-0.033,0.554-0.072,0.826-0.126
	c0.116-0.023,0.23-0.055,0.344-0.083c0.211-0.05,0.421-0.099,0.628-0.161c0.139-0.041,0.273-0.092,0.41-0.139
	c0.177-0.061,0.354-0.122,0.526-0.193c0.145-0.059,0.287-0.125,0.429-0.191c0.158-0.073,0.314-0.146,0.469-0.225
	c0.143-0.074,0.281-0.153,0.419-0.234c0.147-0.086,0.293-0.173,0.436-0.266c0.132-0.086,0.263-0.175,0.392-0.267
	c0.142-0.101,0.282-0.204,0.418-0.312c0.12-0.094,0.237-0.191,0.352-0.289c0.138-0.119,0.271-0.241,0.403-0.366
	c0.105-0.099,0.207-0.2,0.308-0.304c0.132-0.138,0.259-0.279,0.385-0.423c0.09-0.104,0.179-0.205,0.265-0.312
	c0.124-0.155,0.241-0.315,0.357-0.477c0.076-0.107,0.155-0.213,0.227-0.323c0.111-0.168,0.214-0.343,0.315-0.519
	c0.066-0.113,0.134-0.224,0.196-0.341c0.093-0.176,0.177-0.358,0.259-0.54c0.057-0.125,0.119-0.248,0.171-0.375
	c0.072-0.174,0.132-0.354,0.195-0.532c0.051-0.143,0.106-0.283,0.149-0.429c0.051-0.166,0.088-0.338,0.13-0.508
	c0.041-0.163,0.088-0.324,0.121-0.489c0.035-0.175,0.055-0.355,0.081-0.534c0.024-0.164,0.056-0.325,0.073-0.491
	c0-0.002,0.001-0.004,0.001-0.006c0.019-0.193,0.019-0.382,0.029-0.573c0.007-0.161,0.024-0.32,0.024-0.483c0-0.002,0-0.003,0-0.005
	c0.001-1.084-0.164-2.137-0.473-3.132c-0.061-0.198-0.139-0.388-0.212-0.581c-0.048-0.127-0.087-0.257-0.14-0.382
	c-0.098-0.235-0.213-0.46-0.328-0.686c-0.039-0.077-0.072-0.159-0.113-0.235c-0.116-0.216-0.248-0.421-0.378-0.628
	c-0.052-0.082-0.096-0.167-0.15-0.247c-0.119-0.177-0.251-0.344-0.38-0.512c-0.077-0.102-0.148-0.209-0.23-0.307
	c-0.11-0.133-0.231-0.256-0.346-0.384c-0.113-0.125-0.22-0.254-0.34-0.374c-0.092-0.092-0.193-0.175-0.288-0.264
	c-0.155-0.144-0.305-0.29-0.468-0.424c-0.073-0.06-0.152-0.113-0.228-0.171c-0.193-0.151-0.385-0.303-0.59-0.441
	c-0.07-0.048-0.146-0.087-0.218-0.133c-0.215-0.138-0.43-0.275-0.654-0.398c-0.119-0.065-0.243-0.116-0.364-0.176
	c-0.185-0.092-0.367-0.188-0.559-0.269c-0.959-0.406-1.989-0.675-3.068-0.782c-0.002,0-0.004-0.001-0.005-0.001l-64.534-6.467
	c-0.18-0.018-0.36-0.032-0.541-0.04c-22.273-1.085-38.288-7.609-48.957-19.941c-10.197-11.798-16.329-29.659-18.746-54.603
	C20.924,240.309,26.517,232.039,29.549,231.13z"/>
<path d="M115.476,265.31c5.845,0,10.585-4.739,10.585-10.585V239.11c0-5.846-4.74-10.585-10.585-10.585
	c-5.845,0-10.585,4.739-10.585,10.585v15.615C104.89,260.571,109.63,265.31,115.476,265.31z"/>
<path d="M368.638,192.397c0.122,0,0.247-0.002,0.37-0.006c0.96-0.033,1.924-0.05,2.892-0.05c5.845,0,10.585-4.739,10.585-10.585
	s-4.74-10.585-10.585-10.585c-1.212,0-2.418,0.021-3.62,0.062c-5.843,0.201-10.416,5.1-10.215,10.943
	C358.262,187.894,362.96,192.397,368.638,192.397z"/>
<g>
</g>
<g>
</g>
<g>
</g>
<g>
</g>
<g>
</g>
<g>
</g>
<g>
</g>
<g>
</g>
<g>
</g>
<g>
</g>
<g>
</g>
<g>
</g>
<g>
</g>
<g>
</g>
<g>
</g>
</svg>
