<?xml version="1.0" standalone="no"?>
<!DOCTYPE svg PUBLIC "-//W3C//DTD SVG 20010904//EN"
 "http://www.w3.org/TR/2001/REC-SVG-20010904/DTD/svg10.dtd">
<svg version="1.0" xmlns="http://www.w3.org/2000/svg"
 width="700.000000pt" height="700.000000pt" viewBox="0 0 700.000000 700.000000"
 preserveAspectRatio="xMidYMid meet">
<metadata>
Created by potrace 1.11, written by Peter Selinger 2001-2013
</metadata>
<g transform="translate(0.000000,700.000000) scale(0.100000,-0.100000)"
fill="#000000" stroke="none">
<path d="M4778 5416 c-1 -2 -39 -6 -83 -10 -133 -11 -345 -40 -444 -61 -14 -2
-70 -14 -125 -25 -173 -36 -482 -115 -646 -165 -47 -15 -137 -41 -200 -60 -63
-19 -135 -41 -159 -50 -24 -8 -45 -14 -46 -13 -1 2 -16 23 -32 48 -113 166
-273 252 -452 244 -42 -2 -87 -5 -101 -8 -14 -3 -38 -9 -55 -12 -44 -9 -147
-58 -197 -92 -135 -93 -245 -263 -273 -423 -3 -18 -8 -35 -9 -37 -4 -3 -147
-54 -321 -114 -325 -112 -1127 -432 -1365 -546 -110 -52 -229 -209 -259 -341
-22 -101 21 -397 86 -591 90 -267 229 -464 423 -597 89 -61 269 -139 365 -158
100 -20 200 -35 266 -40 42 -3 85 -7 95 -9 11 -2 58 -7 105 -11 103 -8 117
-10 123 -16 3 -3 -8 -20 -25 -39 -27 -32 -63 -81 -96 -135 -20 -32 -43 -86
-63 -150 -26 -80 -30 -106 -35 -197 -3 -67 -1 -81 18 -110 13 -18 37 -42 54
-54 31 -20 36 -21 674 -20 l644 1 86 42 c64 31 99 56 134 95 89 99 112 174
114 368 1 74 3 136 5 138 3 3 420 5 533 3 l32 -1 -51 -68 c-96 -126 -157 -294
-161 -442 -1 -63 2 -81 21 -112 45 -73 -41 -68 1244 -68 977 1 1164 3 1223 16
226 47 423 155 594 325 32 31 107 116 126 144 11 15 34 46 50 69 141 190 304
563 351 799 2 10 5 26 8 35 3 9 8 40 12 67 3 28 8 54 11 58 9 16 18 177 17
332 -1 174 -19 317 -60 468 -14 51 -30 110 -35 132 -6 21 -14 44 -18 50 -5 5
-14 28 -21 49 -20 62 -133 283 -193 379 -214 338 -486 590 -785 729 -123 57
-119 55 -202 82 -140 45 -236 68 -345 82 -27 3 -59 9 -70 11 -21 6 -481 14
-487 9z"/>
</g>
</svg>
